<?xml version="1.0" encoding="UTF-8" standalone="no"?>
<svg
   xmlns:dc="http://purl.org/dc/elements/1.1/"
   xmlns:cc="http://creativecommons.org/ns#"
   xmlns:rdf="http://www.w3.org/1999/02/22-rdf-syntax-ns#"
   xmlns:svg="http://www.w3.org/2000/svg"
   xmlns="http://www.w3.org/2000/svg"
   id="svg4101"
   version="1.1"
   viewBox="0 0 8.4666665 8.4666669"
   height="32"
   width="32">
  <defs
     id="defs4095" />
  <metadata
     id="metadata4098">
    <rdf:RDF>
      <cc:Work
         rdf:about="">
        <dc:format>image/svg+xml</dc:format>
        <dc:type
           rdf:resource="http://purl.org/dc/dcmitype/StillImage" />
        <dc:title></dc:title>
      </cc:Work>
    </rdf:RDF>
  </metadata>
  <g
     transform="translate(0,-288.53332)"
     id="layer1">
    <path
       id="path3738"
       d="m 1.751442,295.91188 c -1.86525179,-1.23437 -2.23584158,-2.78286 -1.13484646,-4.74184 0.81331796,-1.44711 2.26598386,-2.20108 4.24084876,-2.20108 2.2849884,0 3.6092609,1.28702 3.6092609,3.50775 0,1.49702 -0.5162027,2.34055 -2.0248028,3.3086 -2.2902473,1.04726 -3.3972495,0.98741 -4.6904604,0.12657 z m 3.1617762,-0.14855 c 0.3989791,-0.1517 0.7254243,-0.4675 0.7254243,-0.70178 0,-0.23428 -0.8477678,-1.27374 -1.8839142,-2.3099 -2.0258289,-2.0258 -2.4902874,-2.11371 -3.00527155,-0.56877 -0.35998655,1.07992 -0.0301423,2.11106 0.97599015,3.05091 0.909303,0.8494 1.9094818,1.01554 3.1877713,0.52954 z m 2.6501162,-3.19458 c 0.075569,-1.17913 -0.019774,-1.45562 -0.7559621,-2.19175 -0.6456221,-0.64563 -1.0991353,-0.84242 -1.9413343,-0.84242 -1.2486389,0 -2.1655309,0.53634 -2.0155035,1.17898 0.055795,0.23902 0.8592262,1.09507 1.7854174,1.90235 2.1497222,1.87376 2.8049856,1.8632 2.9273825,-0.0471 z"
       style="fill:#b4b7c5;stroke-width:0.28280661" />
  </g>
</svg>
