<svg xmlns="http://www.w3.org/2000/svg" height="630" width="630" xmlns:v="https://vecta.io/nano">
    <path d="M169.61 625.506c-22.393-7.853-29.147-48.57-32.8-197.74-1.797-73.384-.77-370.75 1.364-395.33 1.716-19.755 4.41-26.618 11.34-28.906 4.31-1.422 5.554-1.252 11.072 1.517 9.444 4.738 10.83 8.6 12.435 34.594.743 12.022 1.71 99.11 2.147 193.53l1.86 171.67c.584 0 10.806-12.75 22.716-28.333 33.208-43.45 67.946-85.286 80.11-96.477 7.32-6.735 16.607-9.474 24.718-7.3 6.767 1.822 9.747 5.186 10.666 12.04.605 4.5-.115 7.184-4.067 15.104-5.708 11.438-4.345 9.764-64.733 79.488-18.4 21.244-32.618 39.152-44.113 55.563-6.693 9.554-6.892 13.823-1.058 22.678 2.378 3.61 29.562 32.098 60.408 63.31 60.695 61.413 69.086 70.632 71.175 78.198 1.747 6.328-1.25 13.026-7.77 17.37-6.107 4.068-10.44 3.8-18.24-1.127-3.61-2.28-33.262-31.09-65.895-64.02s-60.17-59.867-61.19-59.855c-2.264.026-1.633 11.445 3.317 60.02 1.83 17.967 3.688 41.42 4.13 52.122.797 19.367.786 19.465-2.357 21.667-3.8 2.662-8.098 2.726-15.23.224z"
          fill="#fdeafd"/>
    <path d="M415.364 493.566c-31.82-13.223-66.892-53.54-73.202-84.15-2.284-11.077.58-21 7.997-27.692 11.382-10.283 27.675-7.88 53.67 7.91 9.608 5.837 10.71 5.646 25.398-4.38 17.996-12.284 23.623-14.434 37.79-14.435 11.28-.001 12.44.26 17.145 3.844 9.993 7.615 12.59 21.15 7.204 37.553-7.802 23.767-38.466 68.846-54.982 80.83-6.34 4.6-10.93 4.714-21.02.522z"
          fill="#c26ce0"/>
</svg>
