<?xml version="1.0" encoding="UTF-8" standalone="no"?>
<svg
   xmlns:dc="http://purl.org/dc/elements/1.1/"
   xmlns:cc="http://creativecommons.org/ns#"
   xmlns:rdf="http://www.w3.org/1999/02/22-rdf-syntax-ns#"
   xmlns:svg="http://www.w3.org/2000/svg"
   xmlns="http://www.w3.org/2000/svg"
   id="svg8"
   version="1.1"
   viewBox="0 0 36 36"
   height="36mm"
   width="36mm">
  <defs
     id="defs2" />
  <metadata
     id="metadata5">
    <rdf:RDF>
      <cc:Work
         rdf:about="">
        <dc:format>image/svg+xml</dc:format>
        <dc:type
           rdf:resource="http://purl.org/dc/dcmitype/StillImage" />
        <dc:title></dc:title>
      </cc:Work>
    </rdf:RDF>
  </metadata>
  <g
     transform="translate(-59.733826,-39.862109)"
     id="layer1">
    <path
       d="m 83.544626,67.109422 c -1.91882,-0.99436 -3.79541,-3.68585 -3.47103,-4.9783 0.26623,-1.06071 1.19904,-1.38299 2.38038,-0.82241 0.52709,0.25012 1.22197,0.73884 1.35091,0.73931 0.17539,6.5e-4 0.34064,-0.0315 1.10307,-0.60942 1.54496,-1.17114 3.26687,-0.84907 3.26687,0.77616 0,1.35661 -2.65322,5.31296 -3.55942,5.30763 -0.15237,-8e-4 -0.63422,-0.18673 -1.07078,-0.41297 z m -14.992968,6.831214 c -0.984074,-1.09536 -1.308816,-6.32506 -1.252748,-20.17448 0.04233,-10.455718 0.07886,-11.657552 0.368582,-12.126332 0.345183,-0.55852 1.218825,-0.3417 1.489261,0.3696 0.151221,0.39774 0.258034,4.840014 0.258034,10.731442 v 10.05275 l 1.361885,-1.80175 c 1.548223,-2.04827 3.914662,-4.88113 4.319729,-5.17113 0.390025,-0.27924 1.296358,-0.39186 1.58723,0.0504 0.473549,0.72002 -0.426852,1.85444 -0.948235,2.4052 -0.202116,0.2135 -0.961496,1.10175 -1.687512,1.97388 -0.726015,0.87213 -1.3972,1.5615 -2.050999,2.37944 -0.467627,0.58503 -0.986248,1.32136 -1.336867,1.80588 -0.389792,0.5949 -0.307914,0.70273 3.162617,4.16492 1.959523,1.95481 3.673953,3.75394 3.809845,3.99806 0.334834,0.6015 0.0679,1.19238 -0.619937,1.37225 -0.464222,0.1214 -1.19109,-0.50228 -3.987024,-3.42103 -1.880616,-1.96322 -3.450989,-3.53634 -3.489719,-3.49582 -0.03873,0.0405 0.0906,1.6131 0.287393,3.49464 0.196797,1.88154 0.297449,3.51864 0.223671,3.63802 -0.231014,0.37379 -1.061091,0.23723 -1.495206,-0.24598 z"
       style="fill:#be5fdf;fill-opacity:1;stroke-width:0.26458332"
       id="path71" />
  </g>
</svg>
