<svg xmlns="http://www.w3.org/2000/svg" viewBox="0 0 2122.7 994.67">
    <path d="M1076.7 987.45c-16.486-3.836-27.966-10.595-41.748-24.583-24.655-25.022-41.528-62.01-41.575-91.133-.018-11.07 4.1-15.73 13.905-15.73 6.742 0 9.698 3.456 14.826 17.333 19.308 52.252 48.34 79.134 79.667 73.768 16.444-2.817 31.146-13.16 38.112-26.814 6.837-13.402 11.216-37.97 13.577-76.178 2.812-45.503.205-204.9-3.447-210.8-.552-.893-6.657 1.668-16.43 6.894-24.938 13.334-25.27 13.47-34.666 14.14-15.694 1.123-36.38-6.186-52.905-18.692-15.755-11.923-23.72-27.73-29.566-58.666-2.984-15.793-3.39-78.702-.637-98.316 10.637-75.75 31.632-120.32 64.888-137.75 7.23-3.79 9.156-4.196 20-4.22 10.416-.024 12.968.452 19.333 3.608 4.033 2 11.03 6.95 15.547 11s8.5 7.365 8.85 7.365.872-4.18 1.16-9.29c.612-10.823 3.22-15.355 11.084-19.258 4.667-2.317 5.633-2.377 10.58-.667 12.236 4.23 12.726 8.51 16.786 146.55l6.255 170.67c2.76 61.963 3.144 173.47.692 201.33-4.532 51.5-10.272 77.9-21.74 100.04-12.804 24.7-38.352 39.473-70.426 40.72-9.242.36-16.887-.094-22.122-1.312zm27.425-380.25c9.62-2.843 21.236-8.675 32.242-16.187l9-6.143-.024-11.43c-.013-6.287-.905-33.03-1.98-59.43l-1.986-68.667c-.046-32.1-2.4-41.77-13.067-53.603-9.156-10.157-24.494-14.46-35.356-9.922-5.71 2.386-15.797 13.752-21.932 24.714-6.832 12.208-12.894 31.147-16.175 50.53-5.6 33.02-6.655 95.37-1.94 113.5 3.222 12.395 15.835 30.623 25.127 36.312 5.053 3.094 16.238 3.23 26.09.32zm-1070.1 50.82c-22.393-7.853-29.147-48.57-32.8-197.74C-.57 386.896.455 89.53 2.6 64.95c1.716-19.755 4.41-26.618 11.34-28.906 4.31-1.422 5.554-1.252 11.072 1.517 9.444 4.738 10.83 8.6 12.435 34.594.743 12.022 1.71 99.11 2.147 193.53l1.858 171.67c.584 0 10.806-12.75 22.716-28.333 33.208-43.45 67.946-85.286 80.11-96.477 7.32-6.735 16.607-9.474 24.718-7.3 6.767 1.822 9.747 5.186 10.666 12.04.605 4.5-.115 7.184-4.067 15.104-5.708 11.438-4.345 9.764-64.733 79.488-18.4 21.244-32.618 39.152-44.113 55.563-6.693 9.554-6.892 13.823-1.058 22.678 2.378 3.61 29.562 32.098 60.408 63.31 60.695 61.413 69.086 70.632 71.175 78.198 1.747 6.328-1.25 13.026-7.77 17.37-6.107 4.068-10.44 3.8-18.24-1.127-3.61-2.28-33.262-31.09-65.895-64.02S45.19 524 44.167 524.002c-2.264.026-1.633 11.445 3.316 60.02 1.83 17.967 3.688 41.42 4.13 52.122.797 19.367.786 19.465-2.357 21.667-3.8 2.662-8.098 2.726-15.23.224zm561.88-1.954c-19.475-5.902-26.778-34.322-31.878-124.06-4.82-84.82-6.3-208.57-4.164-348.67 2.246-147.34 3.47-158 18.157-158 9.563 0 14.134 9.276 16.657 33.8 2.303 22.388 3.976 89.2 3.995 159.53l3.233 213.3c.797-.02 11.348-13.036 23.448-28.926l33.83-43.44c16.658-20.486 45.505-49.83 53.5-54.41 8.696-4.988 15.53-5.127 20.247-.412 3.088 3.088 3.362 4.15 2.64 10.25-2.085 17.602-22.617 47.83-65.11 95.858-21.224 23.988-53.367 64.862-52.82 67.17.216.914 24.093 25.88 53.06 55.48 81.56 83.34 89.95 93.583 84.806 103.53-3.138 6.068-9.686 10.937-14.71 10.937-8.628 0-23.216-12.974-72.838-64.783-37.332-38.977-60.507-61.047-63.13-60.12-.81.286-1.37 3.14-1.256 6.377.382 10.742 5.818 72.282 7.978 90.322 2.72 22.723 2.098 28.906-3.4 33.827-4.282 3.826-6.307 4.23-12.225 2.436zm-330.68-8.468c-14.41-7.542-18.9-23.795-22.497-81.59-2.772-44.42-5.368-105.67-5.37-126.67-.001-24.2 1.326-28.466 9.976-32.08 6.218-2.598 9.86-2.41 15.094.78 5.8 3.537 7.763 8.65 9.477 24.7 3.59 33.62 7.926 125.5 8.448 179.05l.33 33.77-3.148 2.563c-4.017 3.27-5.174 3.222-12.31-.513zm1088.8-1.914c-2.01-2.01-5.16-6.66-7-10.333-6.57-13.12-6.65-13.132-26.374-4.35-24.422 10.875-37.615 13.803-52.62 11.68-17.574-2.486-39.253-17.558-45.888-31.902-4.23-9.142-4.033-36.406.37-51.438 12.695-43.348 42.842-82.524 72.707-94.48 10.43-4.175 26.807-7.9 30.117-6.85 5.05 1.603 5.76-2.233 4.885-26.383-1.14-31.43-6.224-53.22-14.04-60.16-2.806-2.492-2.96-2.492-8.527-.01-3.74 1.666-14.75 11.4-32.336 28.585-28.734 28.078-35.093 33.55-42.647 36.707-6.16 2.573-9.42 1.558-11.177-3.48-1.597-4.582-.27-9.194 6.52-22.668 10.324-20.485 18.587-30.33 41.305-49.216 23.728-19.725 40.013-29.27 50.072-29.348 9.846-.077 26.09 12.548 32.623 25.356 12.167 23.85 16.544 49.338 20.136 117.28 1.86 35.2 2.344 143.2.702 156.6-.972 7.936-1.767 9.9-5.533 13.667-5.355 5.356-8.502 5.53-13.29.742zm-67.83-40.343c18-7.204 37.448-21.725 43.93-32.784 4.443-7.58 6.3-26.934 4.676-48.703-1.884-25.24-6.25-29.706-23.916-24.46-20.436 6.07-55.28 55.62-59.566 84.706-.798 5.414-.483 6.587 2.827 10.52 5.428 6.45 16.328 14.72 19.404 14.72 1.462 0 7.152-1.8 12.645-4zm141.74 39.946c-1.496-1.496-3.347-4.346-4.114-6.333-7.23-18.747-14.084-86-21.156-207.6-1.724-29.644-1.686-68.427.077-79.333 1.768-10.938 4.673-16.02 10.9-19.09 4.26-2.097 5.425-2.187 8.63-.667 7.267 3.448 12.243 18.296 15.74 46.97 2.37 19.427 3.656 23.26 6.907 20.56 1.15-.953 3.587-4.107 5.42-7.01 7.883-12.488 41.6-43.95 53.71-50.133 6.206-3.166 8.958-3.25 19.316-.588 31.937 8.207 54.922 33.583 41.633 45.964-6.57 6.122-20.18 4.204-34.873-4.913-13.485-8.368-20.302-6.88-31.48 6.867-22.544 27.727-40.13 53.247-49.09 71.242-7.36 14.776-7.252 13.162-4.437 67.465 2.336 45.045 1.645 100.73-1.332 107.4-2.04 4.57-9.4 11.938-11.91 11.938-.677 0-2.455-1.224-3.95-2.72zm220.4-1.225c-9.117-3.28-21.043-10.626-27.467-16.915-26.973-26.41-43.92-95.105-36.3-147.14 7.64-52.173 31.88-106.05 55.515-123.4 19.36-14.212 45.073-12.388 64.112 4.55 3.412 3.036 6.932 5.52 7.82 5.52 2.896 0-1.163-208.4-4.714-242-2.676-25.318-5.956-73.454-5.95-87.333 0-13.443 2.78-25.095 6.744-28.333 4.156-3.394 11.348-3.002 15.176.827 15.22 15.22 21.804 111.57 26.02 380.84l6.114 200.63c3.53 29.383 2.198 42-5.086 48.12-7.052 5.934-12.786 3.705-24.67-9.6l-7.992-8.94-11.168 8.434c-12.9 9.75-19.084 12.766-31.532 15.404-11.9 2.522-18.21 2.364-26.625-.664zm23.13-31.545c10.548-5.005 26.195-28.048 33.114-48.765 1.883-5.64 4.073-16.44 4.865-24 2.402-22.927-.976-74.854-6.217-95.566-5.474-21.633-22.296-51.7-30.714-54.902-13.745-5.226-32.676 23.884-42.977 66.084-6.674 27.344-8.637 45.455-7.835 72.31.77 25.82 1.405 28.982 10.192 50.86 7.038 17.522 8.498 20.312 13.8 26.34 8.48 9.66 16.512 12.04 25.783 7.64zm194.22 32.814c-27.81-3.874-40.097-11.19-54.997-32.743-20.446-29.577-29.212-61.927-27.615-101.9 2.1-52.6 18.06-98.666 46.92-135.42 14.624-18.624 35.618-32.988 50.826-34.775 18.24-2.143 33.496 11.648 40.032 36.188 5.19 19.485-.225 40.136-16.256 62.007-12.825 17.496-39.912 42.86-52.785 49.427-2.87 1.464-9.488 3.627-14.706 4.805-16.935 3.825-20.25 9.618-18.182 31.78 3.14 33.66 15.375 58.365 36.294 73.292 19.006 13.562 28.898 14.566 46.702 4.738 11.2-6.188 13.38-6.173 18.684.132 5.943 7.063 3.784 13.424-9.383 27.646-12.742 13.763-24.873 17.716-45.533 14.838zm-21.727-202.32c13.13-7.66 29.018-24.176 35.322-36.72 6.016-11.97 7.344-22.477 2.954-23.36-3.956-.795-12.09 5.587-22.995 18.046-15.9 18.162-29.824 40.53-28.072 45.096 1.13 2.944 3.444 2.39 12.792-3.064zm-1342.4 200.88c-3.485-1.057-5.03-2.687-7.202-7.596-2.546-5.754-2.9-10.636-4.472-61.602-2.3-74.243-6.378-120.54-14.484-164.02-5.635-30.227-11.7-46.364-18.573-49.5-5.29-2.41-11.816 1.966-26.564 17.82-7.48 8.042-24.485 24.734-37.787 37.094L368.3 438.56l-.678 95.057-2.083 100.4c-2.51 9.533-11.444 13.15-17.24 6.982-7.363-7.838-10.228-24.273-12.98-74.474l-3.304-53.84c-1.545-20.566-5.165-104.17-6.264-144.67-.845-31.13.62-48.564 4.894-58.246 2.012-4.558 3.436-5.87 7.78-7.173 10.708-3.208 18.242.916 21.748 11.906.944 2.957 1.78 19.004 2.146 41.18.45 27.25 1.005 36.333 2.217 36.333.89 0 10.282-8.16 20.874-18.135 59.737-56.256 75.792-61.97 99.97-35.58 11.003 12 17.68 29.28 24.63 63.714 9.453 46.83 20.208 164.16 19.065 208-.454 17.437-.9 20.72-3.47 25.622-1.62 3.092-4.122 6.25-5.557 7.018-3.948 2.113-13.502 2.755-18.486 1.243zm1464.1-2.883c-1.524-1.65-3.457-5.4-4.294-8.333-2.018-7.067-3.68-61.485-4.74-155.33-1.122-99.185.414-119.6 9.644-128.22 15.473-14.435 29.67-3.543 29.713 22.8.02 10.952 1.263 18.758 2.99 18.758.728 0 7.054-5.478 14.058-12.174 23.116-22.1 36.73-30.462 49.603-30.473 11.953-.01 19.77 6.207 27.636 21.98 8.503 17.05 17.48 51.352 20.938 80 6.86 56.83 7.91 151.63 1.986 179.25-1.012 4.72-2.613 7.683-5.434 10.056-5.002 4.21-5.982 4.193-12.764-.204-10.386-6.735-11.57-13.233-14.37-78.935-3.456-81.098-6.334-117.47-11.3-142.83-5.298-27.05-9.652-30.244-25.053-18.38-7.078 5.452-35.914 36.2-45.2 48.17l-5 6.456-.96 28.877c-.528 15.883-1.004 50.25-1.06 76.37-.076 36.1-.585 50.274-2.125 59.1-2.22 12.727-5.656 20.764-10.254 23.986-4.362 3.055-10.747 2.64-14.028-.912zM246.675 359.013c-4.47-1.614-12.252-8.956-15.667-14.784-3.13-5.34-3.635-7.675-3.65-16.874-.014-8.743.587-11.883 3.316-17.343 2.843-5.687 4.2-6.938 9.16-8.5 7.312-2.313 18.394-.223 22.61 4.264 8.464 9.01 6.037 43.344-3.536 50.033-4.12 2.878-9.354 4.254-12.232 3.215z"
          fill="#fdeafd"/>
    <path d="M855.78 526.08c-31.82-13.223-66.892-53.54-73.202-84.15-2.284-11.077.58-21 7.997-27.692 11.382-10.283 27.675-7.88 53.67 7.91 9.608 5.837 10.71 5.646 25.398-4.38 17.996-12.284 23.623-14.434 37.79-14.435 11.28-.001 12.44.26 17.145 3.844 9.993 7.615 12.59 21.15 7.204 37.553-7.802 23.767-38.466 68.846-54.982 80.83-6.34 4.6-10.93 4.714-21.02.522z"
          fill="#c26ce0"/>
</svg>
