<?xml version="1.0" encoding="UTF-8" standalone="no"?>
<!-- Created with Inkscape (http://www.inkscape.org/) -->

<svg
   xmlns:dc="http://purl.org/dc/elements/1.1/"
   xmlns:cc="http://creativecommons.org/ns#"
   xmlns:rdf="http://www.w3.org/1999/02/22-rdf-syntax-ns#"
   xmlns:svg="http://www.w3.org/2000/svg"
   xmlns="http://www.w3.org/2000/svg"
   xmlns:sodipodi="http://sodipodi.sourceforge.net/DTD/sodipodi-0.dtd"
   xmlns:inkscape="http://www.inkscape.org/namespaces/inkscape"
   width="112.011mm"
   height="52.011162mm"
   viewBox="0 0 112.011 52.011162"
   version="1.1"
   id="svg8"
   inkscape:version="0.92.3 (2405546, 2018-03-11)"
   sodipodi:docname="logo.svg">
  <defs
     id="defs2" />
  <sodipodi:namedview
     id="base"
     pagecolor="#e4dce7"
     bordercolor="#666666"
     borderopacity="1.0"
     inkscape:pageopacity="1"
     inkscape:pageshadow="2"
     inkscape:zoom="2.8284271"
     inkscape:cx="202.405"
     inkscape:cy="103.76334"
     inkscape:document-units="mm"
     inkscape:current-layer="layer1"
     showgrid="false"
     fit-margin-top="0"
     fit-margin-left="0"
     fit-margin-right="0"
     fit-margin-bottom="0"
     inkscape:window-width="1920"
     inkscape:window-height="1017"
     inkscape:window-x="-8"
     inkscape:window-y="-8"
     inkscape:window-maximized="1" />
  <metadata
     id="metadata5">
    <rdf:RDF>
      <cc:Work
         rdf:about="">
        <dc:format>image/svg+xml</dc:format>
        <dc:type
           rdf:resource="http://purl.org/dc/dcmitype/StillImage" />
        <dc:title></dc:title>
      </cc:Work>
    </rdf:RDF>
  </metadata>
  <g
     inkscape:label="Layer 1"
     inkscape:groupmode="layer"
     id="layer1"
     transform="translate(-59.733826,-41.281598)">
    <path
       style="fill:#342c37;stroke-width:0.26458332;fill-opacity:1"
       d="m 115.93972,92.951058 c -1.76343,-0.76778 -3.54489,-3.48343 -3.63354,-5.53897 -0.0411,-0.95292 0.0306,-1.10709 0.54923,-1.18073 0.39204,-0.0557 0.65114,0.0804 0.75593,0.39688 1.14999,3.47356 2.93942,5.02624 4.95333,4.298 1.88293,-0.68087 2.28719,-2.40852 2.28601,-9.76955 -5.3e-4,-3.1287 -0.16025,-6.62892 -0.27405,-6.80814 0,0 -0.95889,0.51819 -1.85351,0.99698 -1.30765,0.69984 -3.81762,-0.32535 -4.62658,-1.88971 -1.06389,-2.05733 -1.03212,-6.92924 0.0688,-10.55538 1.13191,-3.72812 3.62367,-5.25586 5.58782,-3.42598 l 0.57552,0.53618 v -0.66246 c 0,-0.83217 0.80316,-1.32509 1.41634,-0.86926 0.36369,0.27036 0.4508,1.10658 0.55709,5.34756 0.0693,2.7649 0.25227,8.00877 0.40662,11.65305 0.44463,10.49782 -0.0726,15.08637 -1.88109,16.68686 -1.26112,1.1161 -3.35475,1.45219 -4.88794,0.78467 z m 4.42373,-21.096949 -0.16704,-4.190551 c -0.13751,-3.44972 0.0819,-4.71191 -0.44141,-5.59214 -0.30649,-0.51558 -0.84457,-0.93264 -1.42167,-1.03219 -0.40393,-0.0697 -0.89483,0.0525 -1.17963,0.34733 -1.74299,1.80421 -1.83378,4.96806 -1.87531,7.28849 -0.0188,2.23225 0.0448,2.56624 0.66647,3.50573 0.57057,0.86219 0.83649,1.03841 1.56696,1.03841 1.30686,-0.253485 1.78716,-0.630319 2.85163,-1.365079 z m -59.370792,3.547889 c -0.984074,-1.09536 -1.308816,-6.32506 -1.252748,-20.17448 0.04233,-10.455718 0.07886,-11.657552 0.368582,-12.126332 0.345183,-0.55852 1.218825,-0.3417 1.489261,0.3696 0.151221,0.39774 0.258034,4.840014 0.258034,10.731442 v 10.05275 l 1.361885,-1.80175 c 1.548223,-2.04827 3.914662,-4.88113 4.319729,-5.17113 0.390025,-0.27924 1.296358,-0.39186 1.58723,0.0504 0.473549,0.72002 -0.426852,1.85444 -0.948235,2.4052 -0.202116,0.2135 -0.961496,1.10175 -1.687512,1.97388 -0.726015,0.87213 -1.3972,1.5615 -2.050999,2.37944 -0.467627,0.58503 -0.986248,1.32136 -1.336867,1.80588 -0.389792,0.5949 -0.307914,0.70273 3.162617,4.16492 1.959523,1.95481 3.673953,3.75394 3.809845,3.99806 0.334834,0.6015 0.0679,1.19238 -0.619937,1.37225 -0.464222,0.1214 -1.19109,-0.50228 -3.987024,-3.42103 -1.880616,-1.96322 -3.450989,-3.53634 -3.489719,-3.49582 -0.03873,0.0405 0.0906,1.6131 0.287393,3.49464 0.196797,1.88154 0.297449,3.51864 0.223671,3.63802 -0.231014,0.37379 -1.061091,0.23723 -1.495206,-0.24598 z m 30.231879,0.25228 c -0.670023,-0.23583 -1.010864,-0.912 -1.294153,-2.56738 -0.321602,-1.87925 -0.64307,-8.96759 -0.617967,-13.62604 0.0902,-16.738872 0.114729,-17.197922 0.91875,-17.197922 1.162937,0 1.193575,0.4596 1.248894,18.735082 l 0.0091,2.99238 1.370938,-1.78867 c 1.977777,-2.5804 2.076831,-2.69944 3.436329,-4.12955 0.91321,-0.96065 1.396222,-1.27671 1.852084,-1.21195 1.33524,0.18971 0.09378,2.53303 -3.270124,6.1725 -0.269004,0.29104 -0.952412,1.12818 -1.518684,1.86032 l -1.029589,1.33115 3.795996,3.86412 c 3.020554,3.07477 3.766579,3.97662 3.651996,4.41478 -0.0792,0.30286 -0.395322,0.63041 -0.702498,0.72791 -0.466,0.1479 -1.13955,-0.43126 -4.06685,-3.49697 -2.62442,-2.7485 -3.481808,-3.50757 -3.402999,-3.01277 0.05794,0.3638 0.176186,1.61396 0.262758,2.77813 0.08657,1.16416 0.224324,2.48149 0.306117,2.92738 0.162902,0.88805 -0.281855,1.46269 -0.950058,1.2275 z m 54.559503,-1.26195 c -1.34693,-0.94342 -2.44245,-4.2176 -2.32583,-6.95121 0.13899,-3.2582 1.76717,-7.04041 3.39263,-7.88096 0.95708,-0.49493 2.18037,-0.32033 2.97304,0.42435 l 0.54875,0.51552 -0.0649,-6.00969 c -0.0357,-3.305328 -0.13069,-6.485938 -0.21111,-7.068028 -0.0804,-0.58208 -0.21187,-2.14885 -0.29215,-3.481724 -0.13959,-2.31795 -0.12092,-2.43133 0.42932,-2.60597 0.3164,-0.10042 0.70391,-0.0539 0.86115,0.1033 0.62056,0.62056 1.01004,6.694874 1.14714,17.890642 0.0766,6.2574 0.23246,12.00652 0.34631,12.77582 0.11384,0.7693 0.15245,1.68404 0.0858,2.03274 -0.18129,0.94835 -0.89303,1.088 -1.52239,0.29871 l -0.533,-0.66846 -0.79513,0.62228 c -0.65757,0.51463 -1.38456,0.71723 -2.36879,0.775 -0.61288,-0.10725 -1.23627,-0.4696 -1.67084,-0.77232 z m 3.39659,-2.114851 c 0.94875,-1.53691 1.13727,-2.300979 0.98164,-5.328829 -0.0992,-1.93098 -0.27101,-2.7323 -0.83103,-3.87694 -0.82553,-1.68733 -1.2835,-1.95386 -2.01257,-1.1713 -1.48313,1.59196 -2.36687,6.93463 -1.493,9.02607 0.41413,0.99117 0.75583,2.381013 1.77717,2.54265 0.65098,0.103023 1.23158,-0.630825 1.57779,-1.191651 z m -76.062742,2.298101 c -0.235745,-0.45588 -0.449999,-1.8595 -0.53513,-3.50573 -0.392258,-7.58537 -0.397613,-7.99568 -0.108899,-8.34356 0.456316,-0.54983 1.276419,-0.42073 1.526466,0.2403 0.253459,0.67004 0.717918,10.289 0.58129,12.03854 -0.04975,0.63711 -1.066421,0.33875 -1.463727,-0.42955 z m 58.132202,0.42955 c -0.14075,-0.1819 -0.32513,-0.52592 -0.40973,-0.76449 -0.13704,-0.38639 -0.30243,-0.36263 -1.51471,0.21755 -1.85884,0.8896 -3.38634,0.66585 -4.59853,-0.6736 -1.6656,-1.84047 0.77753,-7.34364 3.70269,-8.34035 0.67396,-0.22964 1.32958,-0.35313 1.45693,-0.27442 0.26577,0.16425 0.29945,-0.0883 0.23204,-1.74011 -0.0563,-1.38048 -0.46702,-2.952281 -0.92441,-2.952281 -0.39089,0 -1.2875,0.889281 -2.28109,1.925131 -1.75584,1.83052 -2.61582,2.21093 -2.61582,1.1571 0.46053,-1.22983 1.14586,-2.39272 2.16815,-3.15762 0.34674,-0.25944 2.17064,-2.02329 3.21532,-1.89031 1.0958,0.20815 1.90025,1.42629 2.28671,3.46267 0.47558,2.50599 0.68599,12.46004 0.27388,12.9566 -0.4078,0.49136 -0.65438,0.5098 -0.99149,0.0741 z m -3.17382,-2.15663 c 0.46826,-0.20388 1.17882,-0.68495 1.579,-1.06904 0.65483,-0.6285 0.7276,-0.87945 0.7276,-2.50887 0,-1.95224 -0.28475,-2.30237 -1.50526,-1.85088 -0.7729,0.28592 -2.40009,2.48379 -2.78161,3.75716 -0.2924,0.97596 -0.27074,1.08952 0.29518,1.54778 0.72999,0.59111 0.62894,0.58368 1.68509,0.12385 z m 7.11584,2.1468 c -0.40558,-0.48869 -0.75028,-3.27651 -1.11927,-9.05215 -0.36238,-5.67237 -0.29854,-6.97992 0.36043,-7.38139 0.69791,-0.42519 1.13553,0.30401 1.35695,2.26108 0.17951,1.58672 0.19102,1.60552 0.60446,0.98766 0.77012,-1.15087 2.73851,-2.87881 3.2794,-2.87881 1.11833,0 3.38783,1.102269 3.02609,2.320932 -0.16612,0.559649 -1.20732,0.46798 -1.74614,0.135033 -0.34437,-0.212796 -0.72067,-0.543034 -1.11913,-0.471595 -0.50746,0.09098 -1.12784,1.05834 -1.12784,1.05834 -0.50338,0.58208 -1.33337,1.73085 -1.84442,2.55281 -0.73788,1.18679 -0.90008,1.67756 -0.78785,2.38374 0.0777,0.48909 0.1683,2.40173 0.20127,4.25031 0.0494,2.77129 -0.0137,3.43477 -0.35967,3.7811 -0.35549,0.35588 -0.46615,0.36397 -0.72428,0.0529 z m 23.2366,0.0834 c -1.64552,-0.22664 -2.18662,-0.58382 -3.14355,-2.07507 -1.12003,-1.74541 -1.47391,-3.77956 -1.11784,-6.4254 0.82671,-6.14292 5.89966,-10.23016 7.17557,-5.7813 0.4082,1.42332 -0.16599,2.81404 -1.87084,4.53127 -1.05333,1.06098 -1.76927,1.55393 -2.43941,1.67965 -1.16836,0.21919 -1.28882,0.50929 -0.98545,2.37325 0.25233,1.55036 0.8916,2.59025 2.0702,3.36755 0.87062,0.57419 1.46748,0.59201 2.26766,0.0677 0.5523,-0.36188 0.64982,-0.36064 0.95927,0.0122 0.28759,0.34652 0.25953,0.52881 -0.16994,1.10404 -0.79787,1.06865 -1.42059,1.32858 -2.74567,1.14607 z m 0.0585,-11.67777 c 0.68782,-0.71101 1.20964,-1.96638 0.93256,-2.24347 -0.39004,-0.39003 -2.84313,2.59664 -2.84313,3.46155 0,0.28575 1.18932,-0.47249 1.91057,-1.21808 z m 5.6618,11.634902 c -0.96149,0.016 -0.76046,-1.263792 -0.87858,-7.769762 -0.12289,-6.76806 -0.0389,-7.66658 0.7568,-8.0924 0.7766,-0.41562 1.30895,0.19822 1.32734,1.53052 l 0.0146,1.06009 1.09382,-1.03542 c 2.62719,-2.48688 3.8348,-1.78941 4.77394,2.75726 0.59894,2.89964 0.69628,10.62946 0.14085,11.18489 -0.35335,0.35335 -0.4719,0.35689 -0.92258,0.0276 -0.46733,-0.3415 -0.53366,-0.83222 -0.68879,-5.09581 -0.14606,-4.01445 -0.46296,-7.658494 -1.06442,-7.89429 -0.51485,-0.201841 -1.35234,0.895177 -1.94347,1.444914 -0.56969,0.529798 -1.52458,1.767134 -1.52458,1.767134 0,0 -0.11355,3.304906 -0.10593,4.957899 0.008,1.722062 0.21603,5.137486 -0.979,5.157375 z M 77.82125,74.214588 c -0.148694,-0.48448 -0.297345,-1.80535 -0.330337,-2.93527 -0.03299,-1.12991 -0.102353,-2.27438 -0.154135,-2.54326 -0.05178,-0.26888 -0.199815,-4.03832 -0.284648,-6.05815 -0.08339,-1.9856 -0.367553,-5.59184 0.54984,-5.75509 1.098764,-0.19553 1.351237,0.28888 1.334123,2.78236 -0.0081,1.17484 -0.0068,2.13626 0.0028,2.1365 0.0096,2.4e-4 0.78352,-0.73181 1.719792,-1.62677 2.127533,-2.03366 3.203096,-2.5459 4.104928,-1.955 0.347999,0.22802 0.802183,0.68081 1.009298,1.0062 0.894946,1.40604 1.55067,5.54745 1.925548,12.16137 0.174471,3.07814 0.0024,3.6438 -1.108218,3.6438 -0.809882,0 -0.921952,-0.41132 -0.921952,-3.38381 0,-4.36398 -0.756639,-11.47129 -1.807202,-11.69134 -0.586651,-0.12288 -1.189204,0.94226 -2.426131,2.08645 l -2.248958,2.08034 v 5.38804 c 0,5.24563 -0.01446,5.3901 -0.547208,5.46628 -0.418819,0.0599 -0.610638,-0.12844 -0.817558,-0.80265 z m -5.660416,-14.76745 c -0.525616,-0.52561 -0.585068,-1.61271 -0.128591,-2.35131 0.23907,-0.38682 1.344654,-0.35345 1.65436,0.0499 0.371521,0.4839 0.220269,2.32575 -0.213542,2.60038 -0.541314,0.34268 -0.70868,0.30455 -1.312227,-0.299 z"
       id="path37"
       inkscape:connector-curvature="0"
       sodipodi:nodetypes="cccccccccsscsscsccccsaaccsccccsscscacsacsccccccccccsscccccsccccccccscccsccccccccccccccccsaccccaaccccccccccccsscscscccccscccccccccssasasccccccccsscsccccccccsccscccccscccsasssccsscssccssssccscccccccccc" />
    <path
       sodipodi:nodetypes="ccsssccc"
       inkscape:connector-curvature="0"
       id="path71"
       d="m 104.58563,68.570784 c -1.91882,-0.99436 -3.79541,-3.68585 -3.47103,-4.9783 0.26623,-1.06071 1.19904,-1.38299 2.38038,-0.82241 0.52709,0.25012 1.22197,0.73884 1.35091,0.73931 0.17539,6.5e-4 0.34064,-0.0315 1.10307,-0.60942 1.54496,-1.17114 3.26687,-0.84907 3.26687,0.77616 0,1.35661 -2.65322,5.31296 -3.55942,5.30763 -0.15237,-8e-4 -0.63422,-0.18673 -1.07078,-0.41297 z"
       style="fill:#be5fdf;stroke-width:0.26458332;fill-opacity:1" />
  </g>
</svg>
